<svg width="13" height="35" viewBox="0 0 13 35" fill="none" xmlns="http://www.w3.org/2000/svg">
<path d="M1.35417 29H2.70833V19.125H1.35417C0.60626 19.125 0 18.5129 0 17.7578V14.4922C0 13.7371 0.60626 13.125 1.35417 13.125H8.9375C9.68541 13.125 10.2917 13.7371 10.2917 14.4922V29H11.6458C12.3937 29 13 29.6121 13 30.3672V33.6328C13 34.3879 12.3937 35 11.6458 35H1.35417C0.60626 35 0 34.3879 0 33.6328V30.3672C0 29.6121 0.60626 29 1.35417 29ZM6.5 0C3.80758 0 1.625 2.20356 1.625 4.92188C1.625 7.64019 3.80758 9.84375 6.5 9.84375C9.19242 9.84375 11.375 7.64019 11.375 4.92188C11.375 2.20356 9.19235 0 6.5 0Z" fill="#5E6767"/>
</svg>
