<svg width="42" height="42" viewBox="0 0 42 42" fill="none" xmlns="http://www.w3.org/2000/svg">
<path d="M19.1582 10.7658C20.2415 9.92325 21.7585 9.92325 22.8418 10.7658L38.9554 23.2986C40.4996 24.4997 40.4996 26.8336 38.9554 28.0347L22.8418 40.5675C21.7585 41.41 20.2415 41.41 19.1582 40.5675L3.04465 28.0347C1.50041 26.8336 1.50041 24.4997 3.04464 23.2986L19.1582 10.7658Z" fill="#533737"/>
<path d="M19.1582 6.09922C20.2415 5.25663 21.7585 5.25662 22.8418 6.09922L38.9554 18.632C40.4996 19.833 40.4996 22.167 38.9554 23.3681L22.8418 35.9008C21.7585 36.7434 20.2415 36.7434 19.1582 35.9008L3.04465 23.3681C1.50041 22.167 1.50041 19.833 3.04464 18.632L19.1582 6.09922Z" fill="#764F4F"/>
<path d="M19.1582 1.43253C20.2415 0.589939 21.7585 0.589937 22.8418 1.43253L38.9554 13.9653C40.4996 15.1663 40.4996 17.5003 38.9554 18.7014L22.8418 31.2341C21.7585 32.0767 20.2415 32.0767 19.1582 31.2341L3.04465 18.7014C1.50041 17.5003 1.50041 15.1664 3.04464 13.9653L19.1582 1.43253Z" fill="#A86969"/>
</svg>
