<svg width="359" height="42" viewBox="0 0 359 42" fill="none" xmlns="http://www.w3.org/2000/svg">
<path d="M15.8027 28H12.999V20.459C12.999 19.6445 13.0342 18.7451 13.1045 17.7607H13.0342C12.8877 18.5342 12.7559 19.0908 12.6387 19.4307L9.68555 28H7.36523L4.35938 19.5186C4.27734 19.29 4.14551 18.7041 3.96387 17.7607H3.88477C3.96094 19.0029 3.99902 20.0928 3.99902 21.0303V28H1.44141V15.3965H5.59863L8.17383 22.8672C8.37891 23.4648 8.52832 24.0654 8.62207 24.6689H8.6748C8.83301 23.9717 9 23.3652 9.17578 22.8496L11.751 15.3965H15.8027V28ZM28.3711 15.3965L24.4248 24.0361C23.6865 25.6533 22.9893 26.7549 22.333 27.3408C21.6768 27.9268 20.8447 28.2197 19.8369 28.2197C19.1689 28.2197 18.624 28.123 18.2021 27.9297V25.3369C18.6826 25.6475 19.1807 25.8027 19.6963 25.8027C20.4053 25.8027 21.0293 25.2285 21.5684 24.0801L17.4287 15.3965H20.6631L22.7549 20.4414C22.8779 20.7461 22.9746 21.0889 23.0449 21.4697H23.0625C23.127 21.1533 23.2266 20.8223 23.3613 20.4766L25.3828 15.3965H28.3711ZM28.9336 27.5342V25.0469C29.9355 25.7207 31.0752 26.0576 32.3525 26.0576C33.9346 26.0576 34.7256 25.4863 34.7256 24.3438C34.7256 23.1836 33.8555 22.6035 32.1152 22.6035H30.498V20.4766H32.0449C33.5918 20.4766 34.3652 19.9316 34.3652 18.8418C34.3652 17.8457 33.7061 17.3477 32.3877 17.3477C31.4443 17.3477 30.4365 17.6465 29.3643 18.2441V15.9238C30.4424 15.4316 31.6348 15.1855 32.9414 15.1855C34.3184 15.1855 35.3848 15.4727 36.1406 16.0469C36.9023 16.6152 37.2832 17.3887 37.2832 18.3672C37.2832 19.1348 37.0664 19.7881 36.6328 20.3271C36.2051 20.8604 35.5928 21.2207 34.7959 21.4082V21.4521C35.6924 21.5693 36.3926 21.8945 36.8965 22.4277C37.4062 22.9551 37.6611 23.6113 37.6611 24.3965C37.6611 25.6094 37.2217 26.5498 36.3428 27.2178C35.4639 27.8857 34.1982 28.2197 32.5459 28.2197C30.9756 28.2197 29.7715 27.9912 28.9336 27.5342ZM47.3555 28H39.7969V15.3965H47.0654V17.708H42.6357V20.5117H46.7578V22.8145H42.6357V25.6973H47.3555V28ZM60.7148 28H58.0342V21.0742C58.0342 20.2773 58.0635 19.5977 58.1221 19.0352H58.0693C57.9463 19.2754 57.7354 19.624 57.4365 20.0811L52.2334 28H49.377V15.3965H52.0576V22.3662C52.0576 23.2275 52.0342 23.8047 51.9873 24.0977H52.0225C52.0518 24.0273 52.2686 23.6846 52.6729 23.0693L57.6738 15.3965H60.7148V28ZM58.9307 11.1865C58.8252 12.1182 58.4238 12.8594 57.7266 13.4102C57.0293 13.9609 56.165 14.2363 55.1338 14.2363C54.085 14.2363 53.2119 13.9609 52.5146 13.4102C51.8174 12.8594 51.4424 12.1182 51.3896 11.1865H53.4111C53.4404 11.6377 53.625 12.0098 53.9648 12.3027C54.3047 12.5898 54.7061 12.7334 55.1689 12.7334C55.626 12.7334 56.0215 12.5869 56.3555 12.2939C56.6895 12.001 56.874 11.6318 56.9092 11.1865H58.9307ZM68.5898 28V15.3965H73.1777C74.584 15.3965 75.665 15.6543 76.4209 16.1699C77.1768 16.6855 77.5547 17.4121 77.5547 18.3496C77.5547 19.0293 77.3232 19.624 76.8604 20.1338C76.4033 20.6436 75.8174 20.998 75.1025 21.1973V21.2324C75.999 21.3438 76.7139 21.6748 77.2471 22.2256C77.7861 22.7764 78.0557 23.4473 78.0557 24.2383C78.0557 25.3926 77.6426 26.3096 76.8164 26.9893C75.9902 27.6631 74.8623 28 73.4326 28H68.5898ZM71.4287 17.4883V20.4766H72.6768C73.2627 20.4766 73.7227 20.3359 74.0566 20.0547C74.3965 19.7676 74.5664 19.375 74.5664 18.877C74.5664 17.9512 73.875 17.4883 72.4922 17.4883H71.4287ZM71.4287 22.5859V25.9082H72.9668C73.623 25.9082 74.1357 25.7559 74.5049 25.4512C74.8799 25.1465 75.0674 24.7305 75.0674 24.2031C75.0674 23.6992 74.8828 23.3037 74.5137 23.0166C74.1504 22.7295 73.6406 22.5859 72.9844 22.5859H71.4287ZM85.4648 28.2197C83.6602 28.2197 82.1895 27.6338 81.0527 26.4619C79.916 25.2842 79.3477 23.752 79.3477 21.8652C79.3477 19.873 79.9248 18.2617 81.0791 17.0312C82.2334 15.8008 83.7627 15.1855 85.667 15.1855C87.4658 15.1855 88.9189 15.7744 90.0264 16.9521C91.1396 18.1299 91.6963 19.6826 91.6963 21.6104C91.6963 23.5908 91.1191 25.1875 89.9648 26.4004C88.8164 27.6133 87.3164 28.2197 85.4648 28.2197ZM85.5879 17.6289C84.5918 17.6289 83.8008 18.0039 83.2148 18.7539C82.6289 19.498 82.3359 20.4854 82.3359 21.7158C82.3359 22.9639 82.6289 23.9512 83.2148 24.6777C83.8008 25.4043 84.5684 25.7676 85.5176 25.7676C86.4961 25.7676 87.2725 25.416 87.8467 24.7129C88.4209 24.0039 88.708 23.0225 88.708 21.7686C88.708 20.4619 88.4297 19.4453 87.873 18.7188C87.3164 17.9922 86.5547 17.6289 85.5879 17.6289ZM105.135 28H102.454V21.0742C102.454 20.2773 102.483 19.5977 102.542 19.0352H102.489C102.366 19.2754 102.155 19.624 101.856 20.0811L96.6533 28H93.7969V15.3965H96.4775V22.3662C96.4775 23.2275 96.4541 23.8047 96.4072 24.0977H96.4424C96.4717 24.0273 96.6885 23.6846 97.0928 23.0693L102.094 15.3965H105.135V28ZM103.351 11.1865C103.245 12.1182 102.844 12.8594 102.146 13.4102C101.449 13.9609 100.585 14.2363 99.5537 14.2363C98.5049 14.2363 97.6318 13.9609 96.9346 13.4102C96.2373 12.8594 95.8623 12.1182 95.8096 11.1865H97.8311C97.8604 11.6377 98.0449 12.0098 98.3848 12.3027C98.7246 12.5898 99.126 12.7334 99.5889 12.7334C100.046 12.7334 100.441 12.5869 100.775 12.2939C101.109 12.001 101.294 11.6318 101.329 11.1865H103.351ZM118.942 28H116.095V22.8672H110.874V28H108.035V15.3965H110.874V20.4238H116.095V15.3965H118.942V28ZM135.114 28H132.293V15.3965H135.114V28ZM121.834 28V15.3965H124.673V20.1162H126.527C129.568 20.1162 131.089 21.3525 131.089 23.8252C131.089 25.1436 130.679 26.1689 129.858 26.9014C129.038 27.6338 127.881 28 126.387 28H121.834ZM124.673 22.2607V25.8379H125.956C127.386 25.8379 128.101 25.2314 128.101 24.0186C128.101 22.8467 127.403 22.2607 126.009 22.2607H124.673Z" fill="white"/>
<path d="M210.957 28V15.3965H215.545C216.951 15.3965 218.032 15.6543 218.788 16.1699C219.544 16.6855 219.922 17.4121 219.922 18.3496C219.922 19.0293 219.69 19.624 219.228 20.1338C218.771 20.6436 218.185 20.998 217.47 21.1973V21.2324C218.366 21.3438 219.081 21.6748 219.614 22.2256C220.153 22.7764 220.423 23.4473 220.423 24.2383C220.423 25.3926 220.01 26.3096 219.184 26.9893C218.357 27.6631 217.229 28 215.8 28H210.957ZM213.796 17.4883V20.4766H215.044C215.63 20.4766 216.09 20.3359 216.424 20.0547C216.764 19.7676 216.934 19.375 216.934 18.877C216.934 17.9512 216.242 17.4883 214.859 17.4883H213.796ZM213.796 22.5859V25.9082H215.334C215.99 25.9082 216.503 25.7559 216.872 25.4512C217.247 25.1465 217.435 24.7305 217.435 24.2031C217.435 23.6992 217.25 23.3037 216.881 23.0166C216.518 22.7295 216.008 22.5859 215.352 22.5859H213.796ZM238.563 28H235.47L234.573 25.1963H230.091L229.203 28H226.127L230.715 15.3965H234.081L238.563 28ZM233.923 23.0166L232.569 18.7803C232.47 18.4639 232.399 18.0859 232.358 17.6465H232.288C232.259 18.0156 232.186 18.3818 232.068 18.7451L230.697 23.0166H233.923ZM247.186 26.6289V28.0703H244.426V26.6289H244.127C242.516 26.6289 241.235 26.1543 240.286 25.2051C239.343 24.25 238.871 23.0166 238.871 21.5049C238.871 20.0283 239.334 18.8418 240.26 17.9453C241.191 17.043 242.469 16.5918 244.092 16.5918H244.426V15.1504H247.186V16.5918H247.511C249.146 16.5918 250.426 17.04 251.352 17.9365C252.283 18.833 252.749 20.0225 252.749 21.5049C252.749 23.0166 252.274 24.25 251.325 25.2051C250.376 26.1543 249.093 26.6289 247.476 26.6289H247.186ZM247.186 18.71V24.4756H247.309C248.094 24.4756 248.709 24.2119 249.154 23.6846C249.605 23.1514 249.831 22.4482 249.831 21.5752C249.831 20.7021 249.605 20.0078 249.154 19.4922C248.709 18.9707 248.1 18.71 247.326 18.71H247.186ZM244.426 24.4756V18.71H244.268C243.506 18.71 242.899 18.9707 242.448 19.4922C242.003 20.0137 241.78 20.708 241.78 21.5752C241.78 22.4541 242 23.1572 242.439 23.6846C242.885 24.2119 243.5 24.4756 244.285 24.4756H244.426ZM262.303 17.7432H257.636V28H254.797V15.3965H262.303V17.7432ZM274.089 28H270.995L270.099 25.1963H265.616L264.729 28H261.652L266.24 15.3965H269.606L274.089 28ZM269.448 23.0166L268.095 18.7803C267.995 18.4639 267.925 18.0859 267.884 17.6465H267.813C267.784 18.0156 267.711 18.3818 267.594 18.7451L266.223 23.0166H269.448ZM286.569 28H283.722V22.8672H278.501V28H275.662V15.3965H278.501V20.4238H283.722V15.3965H286.569V28ZM300.799 28H298.118V21.0742C298.118 20.2773 298.147 19.5977 298.206 19.0352H298.153C298.03 19.2754 297.819 19.624 297.521 20.0811L292.317 28H289.461V15.3965H292.142V22.3662C292.142 23.2275 292.118 23.8047 292.071 24.0977H292.106C292.136 24.0273 292.353 23.6846 292.757 23.0693L297.758 15.3965H300.799V28ZM312.734 27.5518C311.814 27.9971 310.613 28.2197 309.131 28.2197C307.197 28.2197 305.677 27.6514 304.569 26.5146C303.462 25.3779 302.908 23.8633 302.908 21.9707C302.908 19.9551 303.529 18.3203 304.771 17.0664C306.02 15.8125 307.637 15.1855 309.623 15.1855C310.854 15.1855 311.891 15.3408 312.734 15.6514V18.3848C311.891 17.8809 310.93 17.6289 309.852 17.6289C308.668 17.6289 307.713 18.001 306.986 18.7451C306.26 19.4893 305.896 20.4971 305.896 21.7686C305.896 22.9873 306.239 23.96 306.925 24.6865C307.61 25.4072 308.533 25.7676 309.693 25.7676C310.801 25.7676 311.814 25.498 312.734 24.959V27.5518ZM323.782 17.708H320.188V28H317.34V17.708H313.763V15.3965H323.782V17.708ZM335.489 28H332.396L331.499 25.1963H327.017L326.129 28H323.053L327.641 15.3965H331.007L335.489 28ZM330.849 23.0166L329.495 18.7803C329.396 18.4639 329.325 18.0859 329.284 17.6465H329.214C329.185 18.0156 329.111 18.3818 328.994 18.7451L327.623 23.0166H330.849ZM347.97 28H345.122V22.8672H339.901V28H337.062V15.3965H339.901V20.4238H345.122V15.3965H347.97V28ZM358.42 28H350.861V15.3965H358.13V17.708H353.7V20.5117H357.822V22.8145H353.7V25.6973H358.42V28Z" fill="white"/>
</svg>
